<?xml version="1.0" encoding="UTF-8"?>
<svg xmlns="http://www.w3.org/2000/svg" xmlns:xlink="http://www.w3.org/1999/xlink" width="127px" height="100px" viewBox="0 0 126 100" version="1.1">
<g id="surface1">
<path style=" stroke:none;fill-rule:evenodd;fill:rgb(99.215686%,99.215686%,99.215686%);fill-opacity:1;" d="M -0.101562 -0.101562 C 41.898438 -0.101562 83.898438 -0.101562 125.898438 -0.101562 C 125.898438 33.234375 125.898438 66.566406 125.898438 99.898438 C 83.898438 99.898438 41.898438 99.898438 -0.101562 99.898438 C -0.101562 66.566406 -0.101562 33.234375 -0.101562 -0.101562 Z M -0.101562 -0.101562 "/>
<path style=" stroke:none;fill-rule:evenodd;fill:rgb(82.352941%,82.352941%,82.352941%);fill-opacity:1;" d="M 62 8.953125 C 57.324219 8.953125 52.648438 8.953125 47.976562 8.953125 C 45.640625 8.953125 43.300781 8.953125 40.964844 8.953125 C 40.964844 9.15625 40.964844 9.355469 40.964844 9.558594 C 40.777344 9.34375 40.710938 9.074219 40.765625 8.753906 C 47.875 8.6875 54.953125 8.753906 62 8.953125 Z M 62 8.953125 "/>
<path style=" stroke:none;fill-rule:evenodd;fill:rgb(46.666667%,46.666667%,46.666667%);fill-opacity:1;" d="M 33.554688 9.15625 C 33.914062 9.023438 34.316406 8.953125 34.753906 8.953125 C 35.246094 8.960938 35.648438 9.097656 35.957031 9.355469 C 35.175781 9.167969 34.375 9.101562 33.554688 9.15625 Z M 33.554688 9.15625 "/>
<path style=" stroke:none;fill-rule:evenodd;fill:rgb(69.803922%,69.803922%,69.803922%);fill-opacity:1;" d="M 47.976562 8.953125 C 47.976562 9.019531 47.976562 9.085938 47.976562 9.15625 C 46.238281 9.148438 44.5 9.214844 42.769531 9.355469 C 42.148438 9.359375 41.613281 9.496094 41.164062 9.757812 C 41.03125 9.757812 40.964844 9.691406 40.964844 9.558594 C 40.964844 9.355469 40.964844 9.15625 40.964844 8.953125 C 43.300781 8.953125 45.640625 8.953125 47.976562 8.953125 Z M 47.976562 8.953125 "/>
<path style=" stroke:none;fill-rule:evenodd;fill:rgb(34.901961%,34.901961%,34.901961%);fill-opacity:1;" d="M 47.976562 9.15625 C 47.976562 9.085938 47.976562 9.019531 47.976562 8.953125 C 52.648438 8.953125 57.324219 8.953125 62 8.953125 C 62 9.085938 62 9.222656 62 9.355469 C 57.339844 9.15625 52.664062 9.089844 47.976562 9.15625 Z M 47.976562 9.15625 "/>
<path style=" stroke:none;fill-rule:evenodd;fill:rgb(12.156863%,12.156863%,12.156863%);fill-opacity:1;" d="M 33.554688 9.15625 C 34.375 9.101562 35.175781 9.167969 35.957031 9.355469 C 35.957031 9.421875 35.957031 9.492188 35.957031 9.558594 C 35.9375 10.089844 36.074219 10.558594 36.359375 10.964844 C 36.546875 11.25 36.613281 11.585938 36.558594 11.972656 C 36.507812 12.453125 36.644531 12.855469 36.957031 13.179688 C 36.957031 13.246094 36.957031 13.3125 36.957031 13.378906 C 36.910156 13.863281 37.042969 14.265625 37.359375 14.585938 C 37.359375 14.65625 37.359375 14.722656 37.359375 14.789062 C 37.3125 15.269531 37.445312 15.671875 37.761719 15.996094 C 37.761719 16.0625 37.761719 16.128906 37.761719 16.195312 C 37.710938 16.679688 37.84375 17.082031 38.160156 17.40625 C 38.160156 17.472656 38.160156 17.539062 38.160156 17.605469 C 38.113281 18.089844 38.246094 18.492188 38.5625 18.8125 C 38.542969 19.347656 38.675781 19.816406 38.960938 20.222656 C 38.945312 20.753906 39.078125 21.222656 39.363281 21.628906 C 39.34375 22.164062 39.476562 22.632812 39.761719 23.039062 C 39.746094 23.570312 39.878906 24.042969 40.164062 24.445312 C 40.351562 24.660156 40.417969 24.929688 40.363281 25.25 C 40.347656 25.785156 40.480469 26.253906 40.765625 26.660156 C 40.746094 27.195312 40.878906 27.664062 41.164062 28.070312 C 41.148438 28.601562 41.28125 29.070312 41.566406 29.476562 C 41.546875 30.011719 41.679688 30.480469 41.964844 30.886719 C 41.949219 31.417969 42.082031 31.886719 42.367188 32.292969 C 42.554688 32.507812 42.621094 32.777344 42.566406 33.097656 C 42.550781 33.632812 42.683594 34.101562 42.96875 34.507812 C 42.949219 35.039062 43.082031 35.511719 43.367188 35.914062 C 43.351562 36.449219 43.484375 36.917969 43.769531 37.324219 C 43.75 37.859375 43.886719 38.328125 44.171875 38.730469 C 44.417969 39.671875 44.417969 40.613281 44.171875 41.550781 C 44.171875 41.75 44.171875 41.953125 44.171875 42.152344 C 43.8125 42.453125 43.679688 42.855469 43.769531 43.359375 C 43.769531 43.425781 43.769531 43.496094 43.769531 43.5625 C 43.328125 44.128906 43.125 44.800781 43.167969 45.574219 C 43.167969 45.640625 43.167969 45.707031 43.167969 45.773438 C 42.726562 46.34375 42.523438 47.011719 42.566406 47.785156 C 42.566406 47.855469 42.566406 47.921875 42.566406 47.988281 C 42.1875 48.429688 41.988281 48.964844 41.964844 49.597656 C 41.964844 49.796875 41.964844 50 41.964844 50.203125 C 41.585938 50.644531 41.386719 51.179688 41.367188 51.8125 C 38.597656 62.066406 35.859375 72.328125 33.152344 82.59375 C 32.867188 83 32.734375 83.46875 32.753906 84.003906 C 32.566406 84.21875 32.496094 84.488281 32.550781 84.808594 C 32.265625 85.214844 32.132812 85.683594 32.152344 86.21875 C 31.964844 86.433594 31.898438 86.699219 31.949219 87.023438 C 31.78125 87.257812 31.648438 87.527344 31.550781 87.828125 C 24.070312 87.828125 16.59375 87.828125 9.113281 87.828125 C 9.113281 87.625 9.113281 87.425781 9.113281 87.222656 C 9.179688 86.820312 9.246094 86.417969 9.316406 86.015625 C 9.628906 85.613281 9.828125 85.140625 9.914062 84.609375 C 10.117188 83.804688 10.316406 82.996094 10.515625 82.191406 C 10.832031 81.789062 11.03125 81.320312 11.117188 80.785156 C 11.316406 79.980469 11.519531 79.175781 11.71875 78.371094 C 12.03125 77.964844 12.234375 77.496094 12.320312 76.960938 C 12.519531 76.15625 12.71875 75.351562 12.921875 74.546875 C 13.234375 74.144531 13.433594 73.671875 13.519531 73.140625 C 13.722656 72.335938 13.921875 71.527344 14.121094 70.722656 C 14.4375 70.320312 14.636719 69.851562 14.722656 69.316406 C 14.921875 68.511719 15.125 67.707031 15.324219 66.902344 C 15.636719 66.496094 15.839844 66.027344 15.925781 65.492188 C 16.21875 64.339844 16.554688 63.199219 16.925781 62.074219 C 17.132812 61.785156 17.269531 61.449219 17.328125 61.066406 C 17.527344 60.261719 17.726562 59.457031 17.929688 58.652344 C 18.242188 58.246094 18.441406 57.777344 18.53125 57.242188 C 19.339844 54.785156 20.074219 52.304688 20.734375 49.796875 C 20.96875 49.59375 21.101562 49.328125 21.132812 48.992188 C 21.828125 46.722656 22.492188 44.441406 23.136719 42.152344 C 23.371094 41.949219 23.503906 41.679688 23.539062 41.347656 C 23.804688 40.34375 24.070312 39.335938 24.339844 38.328125 C 24.574219 38.125 24.707031 37.859375 24.738281 37.523438 C 27.675781 28.070312 30.613281 18.613281 33.554688 9.15625 Z M 33.554688 9.15625 "/>
<path style=" stroke:none;fill-rule:evenodd;fill:rgb(12.156863%,12.156863%,12.156863%);fill-opacity:1;" d="M 47.976562 9.15625 C 52.664062 9.089844 57.339844 9.15625 62 9.355469 C 62 9.421875 62 9.492188 62 9.558594 C 62.042969 10.292969 62.242188 10.964844 62.597656 11.570312 C 62.976562 13.3125 63.511719 14.992188 64.203125 16.597656 C 64.582031 18.34375 65.113281 20.019531 65.804688 21.628906 C 66.117188 23.171875 66.582031 24.648438 67.207031 26.054688 C 67.585938 27.800781 68.121094 29.476562 68.808594 31.085938 C 69.1875 32.832031 69.722656 34.507812 70.410156 36.117188 C 70.789062 37.859375 71.324219 39.539062 72.015625 41.148438 C 72.328125 42.691406 72.792969 44.164062 73.417969 45.574219 C 73.796875 47.316406 74.328125 48.996094 75.019531 50.605469 C 75.398438 52.347656 75.933594 54.023438 76.621094 55.632812 C 77 57.378906 77.535156 59.054688 78.222656 60.664062 C 78.601562 62.410156 79.136719 64.085938 79.828125 65.695312 C 80.136719 67.238281 80.605469 68.710938 81.230469 70.121094 C 81.609375 71.863281 82.140625 73.542969 82.832031 75.152344 C 83.144531 76.695312 83.609375 78.167969 84.234375 79.578125 C 84.546875 81.121094 85.011719 82.597656 85.636719 84.003906 C 85.929688 85.289062 86.261719 86.5625 86.636719 87.828125 C 85.332031 87.761719 84.0625 87.828125 82.832031 88.027344 C 76.320312 88.09375 69.84375 88.027344 63.402344 87.828125 C 63.417969 87.292969 63.285156 86.824219 63 86.417969 C 63.019531 85.886719 62.882812 85.414062 62.597656 85.011719 C 62.648438 84.527344 62.515625 84.125 62.199219 83.804688 C 62.253906 83.417969 62.1875 83.082031 62 82.796875 C 62.015625 82.261719 61.882812 81.792969 61.597656 81.386719 C 61.617188 80.855469 61.480469 80.386719 61.195312 79.980469 C 61.246094 79.496094 61.113281 79.09375 60.796875 78.773438 C 60.851562 78.386719 60.785156 78.050781 60.597656 77.765625 C 60.613281 77.234375 60.480469 76.761719 60.195312 76.359375 C 60.242188 75.875 60.109375 75.472656 59.792969 75.152344 C 59.792969 74.882812 59.792969 74.613281 59.792969 74.347656 C 57.433594 74.003906 55.03125 73.871094 52.582031 73.945312 C 52.117188 73.945312 51.648438 73.945312 51.179688 73.945312 C 47.671875 73.875 44.199219 73.675781 40.765625 73.339844 C 40.835938 72.65625 40.96875 71.984375 41.164062 71.328125 C 41.164062 71.125 41.164062 70.925781 41.164062 70.722656 C 41.550781 69.980469 41.820312 69.175781 41.964844 68.308594 C 41.964844 68.242188 41.964844 68.175781 41.964844 68.109375 C 42.226562 67.476562 42.425781 66.804688 42.566406 66.097656 C 42.761719 65.582031 42.898438 65.042969 42.96875 64.488281 C 43.160156 64.125 43.292969 63.722656 43.367188 63.28125 C 43.367188 63.210938 43.367188 63.144531 43.367188 63.078125 C 43.628906 62.445312 43.828125 61.777344 43.96875 61.066406 C 44.433594 59.613281 44.832031 58.136719 45.171875 56.640625 C 48.320312 56.714844 51.457031 56.582031 54.585938 56.238281 C 54.515625 56.03125 54.382812 55.898438 54.1875 55.835938 C 54.21875 55.636719 54.152344 55.5 53.984375 55.433594 C 54.042969 55.046875 53.976562 54.710938 53.785156 54.425781 C 53.804688 53.894531 53.671875 53.421875 53.382812 53.019531 C 53.402344 52.484375 53.269531 52.015625 52.984375 51.609375 C 53.003906 51.074219 52.867188 50.605469 52.582031 50.203125 C 52.601562 49.667969 52.46875 49.199219 52.183594 48.792969 C 52.199219 48.257812 52.066406 47.789062 51.78125 47.382812 C 51.800781 46.851562 51.667969 46.382812 51.382812 45.976562 C 51.398438 45.441406 51.265625 44.972656 50.980469 44.566406 C 51 44.035156 50.867188 43.5625 50.582031 43.160156 C 50.597656 42.625 50.464844 42.15625 50.179688 41.75 C 50.199219 41.21875 50.0625 40.746094 49.777344 40.34375 C 49.796875 39.808594 49.664062 39.339844 49.378906 38.933594 C 49.394531 38.398438 49.261719 37.929688 48.976562 37.523438 C 48.996094 36.992188 48.863281 36.523438 48.578125 36.117188 C 48.59375 35.582031 48.460938 35.113281 48.175781 34.707031 C 48.226562 34.226562 48.089844 33.824219 47.777344 33.5 C 47.777344 33.433594 47.777344 33.367188 47.777344 33.300781 C 47.824219 32.816406 47.691406 32.414062 47.375 32.09375 C 47.375 32.027344 47.375 31.957031 47.375 31.890625 C 47.421875 31.410156 47.289062 31.007812 46.972656 30.683594 C 47.03125 30.296875 46.964844 29.964844 46.773438 29.679688 C 46.792969 29.144531 46.660156 28.675781 46.375 28.269531 C 46.390625 27.734375 46.257812 27.265625 45.972656 26.859375 C 45.992188 26.328125 45.859375 25.859375 45.574219 25.453125 C 45.589844 24.917969 45.457031 24.449219 45.171875 24.042969 C 45.191406 23.511719 45.054688 23.042969 44.769531 22.636719 C 44.789062 22.101562 44.65625 21.632812 44.371094 21.226562 C 44.386719 20.695312 44.253906 20.222656 43.96875 19.820312 C 43.988281 19.285156 43.855469 18.816406 43.570312 18.410156 C 43.585938 17.875 43.453125 17.40625 43.167969 17.003906 C 43.1875 16.46875 43.054688 16 42.769531 15.59375 C 42.785156 15.058594 42.652344 14.589844 42.367188 14.183594 C 42.386719 13.652344 42.25 13.183594 41.964844 12.777344 C 41.984375 12.242188 41.851562 11.773438 41.566406 11.367188 C 41.585938 10.835938 41.449219 10.363281 41.164062 9.960938 C 41.164062 9.894531 41.164062 9.824219 41.164062 9.757812 C 41.613281 9.496094 42.148438 9.359375 42.769531 9.355469 C 44.5 9.214844 46.238281 9.148438 47.976562 9.15625 Z M 47.976562 9.15625 "/>
<path style=" stroke:none;fill-rule:evenodd;fill:rgb(47.45098%,47.45098%,47.45098%);fill-opacity:1;" d="M 35.957031 9.558594 C 36.242188 9.960938 36.375 10.433594 36.359375 10.964844 C 36.074219 10.558594 35.9375 10.089844 35.957031 9.558594 Z M 35.957031 9.558594 "/>
<path style=" stroke:none;fill-rule:evenodd;fill:rgb(38.823529%,38.823529%,38.823529%);fill-opacity:1;" d="M 62 9.558594 C 62.355469 10.160156 62.554688 10.832031 62.597656 11.570312 C 62.242188 10.964844 62.042969 10.292969 62 9.558594 Z M 62 9.558594 "/>
<path style=" stroke:none;fill-rule:evenodd;fill:rgb(63.529412%,63.529412%,63.529412%);fill-opacity:1;" d="M 41.164062 9.960938 C 41.449219 10.363281 41.585938 10.835938 41.566406 11.367188 C 41.28125 10.960938 41.148438 10.492188 41.164062 9.960938 Z M 41.164062 9.960938 "/>
<path style=" stroke:none;fill-rule:evenodd;fill:rgb(63.137255%,63.137255%,63.137255%);fill-opacity:1;" d="M 41.566406 11.367188 C 41.851562 11.773438 41.984375 12.242188 41.964844 12.777344 C 41.679688 12.371094 41.546875 11.902344 41.566406 11.367188 Z M 41.566406 11.367188 "/>
<path style=" stroke:none;fill-rule:evenodd;fill:rgb(36.078431%,36.078431%,36.078431%);fill-opacity:1;" d="M 62.597656 11.570312 C 63.289062 13.179688 63.824219 14.855469 64.203125 16.597656 C 63.511719 14.992188 62.976562 13.3125 62.597656 11.570312 Z M 62.597656 11.570312 "/>
<path style=" stroke:none;fill-rule:evenodd;fill:rgb(38.431373%,38.431373%,38.431373%);fill-opacity:1;" d="M 36.558594 11.972656 C 36.875 12.292969 37.007812 12.695312 36.957031 13.179688 C 36.644531 12.855469 36.507812 12.453125 36.558594 11.972656 Z M 36.558594 11.972656 "/>
<path style=" stroke:none;fill-rule:evenodd;fill:rgb(62.745098%,62.745098%,62.745098%);fill-opacity:1;" d="M 41.964844 12.777344 C 42.25 13.183594 42.386719 13.652344 42.367188 14.183594 C 42.082031 13.78125 41.949219 13.308594 41.964844 12.777344 Z M 41.964844 12.777344 "/>
<path style=" stroke:none;fill-rule:evenodd;fill:rgb(38.823529%,38.823529%,38.823529%);fill-opacity:1;" d="M 36.957031 13.378906 C 37.273438 13.703125 37.40625 14.105469 37.359375 14.585938 C 37.042969 14.265625 36.910156 13.863281 36.957031 13.378906 Z M 36.957031 13.378906 "/>
<path style=" stroke:none;fill-rule:evenodd;fill:rgb(62.352941%,62.352941%,62.352941%);fill-opacity:1;" d="M 42.367188 14.183594 C 42.652344 14.589844 42.785156 15.058594 42.769531 15.59375 C 42.484375 15.1875 42.347656 14.71875 42.367188 14.183594 Z M 42.367188 14.183594 "/>
<path style=" stroke:none;fill-rule:evenodd;fill:rgb(39.215686%,39.215686%,39.215686%);fill-opacity:1;" d="M 37.359375 14.789062 C 37.675781 15.109375 37.808594 15.511719 37.761719 15.996094 C 37.445312 15.671875 37.3125 15.269531 37.359375 14.789062 Z M 37.359375 14.789062 "/>
<path style=" stroke:none;fill-rule:evenodd;fill:rgb(61.960784%,61.960784%,61.960784%);fill-opacity:1;" d="M 42.769531 15.59375 C 43.054688 16 43.1875 16.46875 43.167969 17.003906 C 42.882812 16.597656 42.75 16.128906 42.769531 15.59375 Z M 42.769531 15.59375 "/>
<path style=" stroke:none;fill-rule:evenodd;fill:rgb(40%,40%,40%);fill-opacity:1;" d="M 37.761719 16.195312 C 38.074219 16.519531 38.207031 16.921875 38.160156 17.40625 C 37.84375 17.082031 37.710938 16.679688 37.761719 16.195312 Z M 37.761719 16.195312 "/>
<path style=" stroke:none;fill-rule:evenodd;fill:rgb(36.862745%,36.862745%,36.862745%);fill-opacity:1;" d="M 64.203125 16.597656 C 64.890625 18.207031 65.425781 19.886719 65.804688 21.628906 C 65.113281 20.019531 64.582031 18.34375 64.203125 16.597656 Z M 64.203125 16.597656 "/>
<path style=" stroke:none;fill-rule:evenodd;fill:rgb(61.568627%,61.568627%,61.568627%);fill-opacity:1;" d="M 43.167969 17.003906 C 43.453125 17.40625 43.585938 17.875 43.570312 18.410156 C 43.285156 18.003906 43.152344 17.535156 43.167969 17.003906 Z M 43.167969 17.003906 "/>
<path style=" stroke:none;fill-rule:evenodd;fill:rgb(40.784314%,40.784314%,40.784314%);fill-opacity:1;" d="M 38.160156 17.605469 C 38.476562 17.929688 38.609375 18.332031 38.5625 18.8125 C 38.246094 18.492188 38.113281 18.089844 38.160156 17.605469 Z M 38.160156 17.605469 "/>
<path style=" stroke:none;fill-rule:evenodd;fill:rgb(61.568627%,61.568627%,61.568627%);fill-opacity:1;" d="M 43.570312 18.410156 C 43.855469 18.816406 43.988281 19.285156 43.96875 19.820312 C 43.683594 19.414062 43.550781 18.945312 43.570312 18.410156 Z M 43.570312 18.410156 "/>
<path style=" stroke:none;fill-rule:evenodd;fill:rgb(45.098039%,45.098039%,45.098039%);fill-opacity:1;" d="M 38.5625 18.8125 C 38.847656 19.21875 38.980469 19.6875 38.960938 20.222656 C 38.675781 19.816406 38.542969 19.347656 38.5625 18.8125 Z M 38.5625 18.8125 "/>
<path style=" stroke:none;fill-rule:evenodd;fill:rgb(60.784314%,60.784314%,60.784314%);fill-opacity:1;" d="M 43.96875 19.820312 C 44.253906 20.222656 44.386719 20.695312 44.371094 21.226562 C 44.085938 20.820312 43.953125 20.351562 43.96875 19.820312 Z M 43.96875 19.820312 "/>
<path style=" stroke:none;fill-rule:evenodd;fill:rgb(45.882353%,45.882353%,45.882353%);fill-opacity:1;" d="M 38.960938 20.222656 C 39.246094 20.625 39.378906 21.097656 39.363281 21.628906 C 39.078125 21.222656 38.945312 20.753906 38.960938 20.222656 Z M 38.960938 20.222656 "/>
<path style=" stroke:none;fill-rule:evenodd;fill:rgb(60.784314%,60.784314%,60.784314%);fill-opacity:1;" d="M 44.371094 21.226562 C 44.65625 21.632812 44.789062 22.101562 44.769531 22.636719 C 44.484375 22.230469 44.351562 21.761719 44.371094 21.226562 Z M 44.371094 21.226562 "/>
<path style=" stroke:none;fill-rule:evenodd;fill:rgb(46.666667%,46.666667%,46.666667%);fill-opacity:1;" d="M 39.363281 21.628906 C 39.648438 22.035156 39.78125 22.503906 39.761719 23.039062 C 39.476562 22.632812 39.34375 22.164062 39.363281 21.628906 Z M 39.363281 21.628906 "/>
<path style=" stroke:none;fill-rule:evenodd;fill:rgb(36.470588%,36.470588%,36.470588%);fill-opacity:1;" d="M 65.804688 21.628906 C 66.425781 23.039062 66.894531 24.511719 67.207031 26.054688 C 66.582031 24.648438 66.117188 23.171875 65.804688 21.628906 Z M 65.804688 21.628906 "/>
<path style=" stroke:none;fill-rule:evenodd;fill:rgb(60.392157%,60.392157%,60.392157%);fill-opacity:1;" d="M 44.769531 22.636719 C 45.054688 23.042969 45.191406 23.511719 45.171875 24.042969 C 44.886719 23.640625 44.753906 23.167969 44.769531 22.636719 Z M 44.769531 22.636719 "/>
<path style=" stroke:none;fill-rule:evenodd;fill:rgb(47.45098%,47.45098%,47.45098%);fill-opacity:1;" d="M 39.761719 23.039062 C 40.046875 23.445312 40.183594 23.914062 40.164062 24.445312 C 39.878906 24.042969 39.746094 23.570312 39.761719 23.039062 Z M 39.761719 23.039062 "/>
<path style=" stroke:none;fill-rule:evenodd;fill:rgb(60%,60%,60%);fill-opacity:1;" d="M 45.171875 24.042969 C 45.457031 24.449219 45.589844 24.917969 45.574219 25.453125 C 45.285156 25.046875 45.152344 24.578125 45.171875 24.042969 Z M 45.171875 24.042969 "/>
<path style=" stroke:none;fill-rule:evenodd;fill:rgb(42.352941%,42.352941%,42.352941%);fill-opacity:1;" d="M 40.363281 25.25 C 40.648438 25.65625 40.78125 26.125 40.765625 26.660156 C 40.480469 26.253906 40.347656 25.785156 40.363281 25.25 Z M 40.363281 25.25 "/>
<path style=" stroke:none;fill-rule:evenodd;fill:rgb(59.607843%,59.607843%,59.607843%);fill-opacity:1;" d="M 45.574219 25.453125 C 45.859375 25.859375 45.992188 26.328125 45.972656 26.859375 C 45.6875 26.457031 45.554688 25.984375 45.574219 25.453125 Z M 45.574219 25.453125 "/>
<path style=" stroke:none;fill-rule:evenodd;fill:rgb(36.862745%,36.862745%,36.862745%);fill-opacity:1;" d="M 67.207031 26.054688 C 67.894531 27.664062 68.429688 29.34375 68.808594 31.085938 C 68.121094 29.476562 67.585938 27.800781 67.207031 26.054688 Z M 67.207031 26.054688 "/>
<path style=" stroke:none;fill-rule:evenodd;fill:rgb(43.137255%,43.137255%,43.137255%);fill-opacity:1;" d="M 40.765625 26.660156 C 41.050781 27.066406 41.183594 27.535156 41.164062 28.070312 C 40.878906 27.664062 40.746094 27.195312 40.765625 26.660156 Z M 40.765625 26.660156 "/>
<path style=" stroke:none;fill-rule:evenodd;fill:rgb(59.215686%,59.215686%,59.215686%);fill-opacity:1;" d="M 45.972656 26.859375 C 46.257812 27.265625 46.390625 27.734375 46.375 28.269531 C 46.089844 27.863281 45.953125 27.394531 45.972656 26.859375 Z M 45.972656 26.859375 "/>
<path style=" stroke:none;fill-rule:evenodd;fill:rgb(43.921569%,43.921569%,43.921569%);fill-opacity:1;" d="M 41.164062 28.070312 C 41.449219 28.472656 41.585938 28.941406 41.566406 29.476562 C 41.28125 29.070312 41.148438 28.601562 41.164062 28.070312 Z M 41.164062 28.070312 "/>
<path style=" stroke:none;fill-rule:evenodd;fill:rgb(58.431373%,58.431373%,58.431373%);fill-opacity:1;" d="M 46.375 28.269531 C 46.660156 28.675781 46.792969 29.144531 46.773438 29.679688 C 46.488281 29.273438 46.355469 28.804688 46.375 28.269531 Z M 46.375 28.269531 "/>
<path style=" stroke:none;fill-rule:evenodd;fill:rgb(45.098039%,45.098039%,45.098039%);fill-opacity:1;" d="M 41.566406 29.476562 C 41.851562 29.882812 41.984375 30.351562 41.964844 30.886719 C 41.679688 30.480469 41.546875 30.011719 41.566406 29.476562 Z M 41.566406 29.476562 "/>
<path style=" stroke:none;fill-rule:evenodd;fill:rgb(45.882353%,45.882353%,45.882353%);fill-opacity:1;" d="M 41.964844 30.886719 C 42.25 31.289062 42.386719 31.761719 42.367188 32.292969 C 42.082031 31.886719 41.949219 31.417969 41.964844 30.886719 Z M 41.964844 30.886719 "/>
<path style=" stroke:none;fill-rule:evenodd;fill:rgb(68.627451%,68.627451%,68.627451%);fill-opacity:1;" d="M 46.972656 30.683594 C 47.289062 31.007812 47.421875 31.410156 47.375 31.890625 C 47.058594 31.570312 46.925781 31.167969 46.972656 30.683594 Z M 46.972656 30.683594 "/>
<path style=" stroke:none;fill-rule:evenodd;fill:rgb(38.039216%,38.039216%,38.039216%);fill-opacity:1;" d="M 68.808594 31.085938 C 69.5 32.695312 70.03125 34.371094 70.410156 36.117188 C 69.722656 34.507812 69.1875 32.832031 68.808594 31.085938 Z M 68.808594 31.085938 "/>
<path style=" stroke:none;fill-rule:evenodd;fill:rgb(67.843137%,67.843137%,67.843137%);fill-opacity:1;" d="M 47.375 32.09375 C 47.691406 32.414062 47.824219 32.816406 47.777344 33.300781 C 47.460938 32.976562 47.328125 32.574219 47.375 32.09375 Z M 47.375 32.09375 "/>
<path style=" stroke:none;fill-rule:evenodd;fill:rgb(41.176471%,41.176471%,41.176471%);fill-opacity:1;" d="M 42.566406 33.097656 C 42.851562 33.503906 42.984375 33.972656 42.96875 34.507812 C 42.683594 34.101562 42.550781 33.632812 42.566406 33.097656 Z M 42.566406 33.097656 "/>
<path style=" stroke:none;fill-rule:evenodd;fill:rgb(67.45098%,67.45098%,67.45098%);fill-opacity:1;" d="M 47.777344 33.5 C 48.089844 33.824219 48.226562 34.226562 48.175781 34.707031 C 47.859375 34.386719 47.726562 33.984375 47.777344 33.5 Z M 47.777344 33.5 "/>
<path style=" stroke:none;fill-rule:evenodd;fill:rgb(42.352941%,42.352941%,42.352941%);fill-opacity:1;" d="M 42.96875 34.507812 C 43.253906 34.914062 43.386719 35.382812 43.367188 35.914062 C 43.082031 35.511719 42.949219 35.039062 42.96875 34.507812 Z M 42.96875 34.507812 "/>
<path style=" stroke:none;fill-rule:evenodd;fill:rgb(63.529412%,63.529412%,63.529412%);fill-opacity:1;" d="M 48.175781 34.707031 C 48.460938 35.113281 48.59375 35.582031 48.578125 36.117188 C 48.292969 35.710938 48.160156 35.242188 48.175781 34.707031 Z M 48.175781 34.707031 "/>
<path style=" stroke:none;fill-rule:evenodd;fill:rgb(43.137255%,43.137255%,43.137255%);fill-opacity:1;" d="M 43.367188 35.914062 C 43.652344 36.320312 43.789062 36.789062 43.769531 37.324219 C 43.484375 36.917969 43.351562 36.449219 43.367188 35.914062 Z M 43.367188 35.914062 "/>
<path style=" stroke:none;fill-rule:evenodd;fill:rgb(63.137255%,63.137255%,63.137255%);fill-opacity:1;" d="M 48.578125 36.117188 C 48.863281 36.523438 48.996094 36.992188 48.976562 37.523438 C 48.691406 37.121094 48.558594 36.648438 48.578125 36.117188 Z M 48.578125 36.117188 "/>
<path style=" stroke:none;fill-rule:evenodd;fill:rgb(39.215686%,39.215686%,39.215686%);fill-opacity:1;" d="M 70.410156 36.117188 C 71.101562 37.726562 71.636719 39.402344 72.015625 41.148438 C 71.324219 39.539062 70.789062 37.859375 70.410156 36.117188 Z M 70.410156 36.117188 "/>
<path style=" stroke:none;fill-rule:evenodd;fill:rgb(62.352941%,62.352941%,62.352941%);fill-opacity:1;" d="M 24.738281 37.523438 C 24.707031 37.859375 24.574219 38.125 24.339844 38.328125 C 24.285156 37.953125 24.417969 37.683594 24.738281 37.523438 Z M 24.738281 37.523438 "/>
<path style=" stroke:none;fill-rule:evenodd;fill:rgb(44.313725%,44.313725%,44.313725%);fill-opacity:1;" d="M 43.769531 37.324219 C 44.054688 37.730469 44.1875 38.199219 44.171875 38.730469 C 43.886719 38.328125 43.75 37.859375 43.769531 37.324219 Z M 43.769531 37.324219 "/>
<path style=" stroke:none;fill-rule:evenodd;fill:rgb(62.745098%,62.745098%,62.745098%);fill-opacity:1;" d="M 48.976562 37.523438 C 49.261719 37.929688 49.394531 38.398438 49.378906 38.933594 C 49.09375 38.527344 48.960938 38.058594 48.976562 37.523438 Z M 48.976562 37.523438 "/>
<path style=" stroke:none;fill-rule:evenodd;fill:rgb(62.352941%,62.352941%,62.352941%);fill-opacity:1;" d="M 49.378906 38.933594 C 49.664062 39.339844 49.796875 39.808594 49.777344 40.34375 C 49.492188 39.9375 49.359375 39.46875 49.378906 38.933594 Z M 49.378906 38.933594 "/>
<path style=" stroke:none;fill-rule:evenodd;fill:rgb(40.392157%,40.392157%,40.392157%);fill-opacity:1;" d="M 44.171875 38.730469 C 44.457031 39.171875 44.589844 39.675781 44.570312 40.242188 C 44.605469 40.753906 44.46875 41.1875 44.171875 41.550781 C 44.417969 40.613281 44.417969 39.671875 44.171875 38.730469 Z M 44.171875 38.730469 "/>
<path style=" stroke:none;fill-rule:evenodd;fill:rgb(61.960784%,61.960784%,61.960784%);fill-opacity:1;" d="M 49.777344 40.34375 C 50.0625 40.746094 50.199219 41.21875 50.179688 41.75 C 49.894531 41.34375 49.761719 40.875 49.777344 40.34375 Z M 49.777344 40.34375 "/>
<path style=" stroke:none;fill-rule:evenodd;fill:rgb(62.745098%,62.745098%,62.745098%);fill-opacity:1;" d="M 23.539062 41.347656 C 23.503906 41.679688 23.371094 41.949219 23.136719 42.152344 C 23.082031 41.773438 23.214844 41.507812 23.539062 41.347656 Z M 23.539062 41.347656 "/>
<path style=" stroke:none;fill-rule:evenodd;fill:rgb(39.215686%,39.215686%,39.215686%);fill-opacity:1;" d="M 72.015625 41.148438 C 72.636719 42.554688 73.105469 44.03125 73.417969 45.574219 C 72.792969 44.164062 72.328125 42.691406 72.015625 41.148438 Z M 72.015625 41.148438 "/>
<path style=" stroke:none;fill-rule:evenodd;fill:rgb(61.568627%,61.568627%,61.568627%);fill-opacity:1;" d="M 50.179688 41.75 C 50.464844 42.15625 50.597656 42.625 50.582031 43.160156 C 50.296875 42.753906 50.160156 42.285156 50.179688 41.75 Z M 50.179688 41.75 "/>
<path style=" stroke:none;fill-rule:evenodd;fill:rgb(43.529412%,43.529412%,43.529412%);fill-opacity:1;" d="M 44.171875 42.152344 C 44.09375 42.59375 43.960938 42.996094 43.769531 43.359375 C 43.679688 42.855469 43.8125 42.453125 44.171875 42.152344 Z M 44.171875 42.152344 "/>
<path style=" stroke:none;fill-rule:evenodd;fill:rgb(61.176471%,61.176471%,61.176471%);fill-opacity:1;" d="M 50.582031 43.160156 C 50.867188 43.5625 51 44.035156 50.980469 44.566406 C 50.695312 44.160156 50.5625 43.691406 50.582031 43.160156 Z M 50.582031 43.160156 "/>
<path style=" stroke:none;fill-rule:evenodd;fill:rgb(41.568627%,41.568627%,41.568627%);fill-opacity:1;" d="M 43.769531 43.5625 C 43.628906 44.269531 43.425781 44.941406 43.167969 45.574219 C 43.125 44.800781 43.328125 44.128906 43.769531 43.5625 Z M 43.769531 43.5625 "/>
<path style=" stroke:none;fill-rule:evenodd;fill:rgb(60.784314%,60.784314%,60.784314%);fill-opacity:1;" d="M 50.980469 44.566406 C 51.265625 44.972656 51.398438 45.441406 51.382812 45.976562 C 51.097656 45.570312 50.964844 45.101562 50.980469 44.566406 Z M 50.980469 44.566406 "/>
<path style=" stroke:none;fill-rule:evenodd;fill:rgb(42.352941%,42.352941%,42.352941%);fill-opacity:1;" d="M 43.167969 45.773438 C 43.027344 46.484375 42.824219 47.15625 42.566406 47.785156 C 42.523438 47.011719 42.726562 46.34375 43.167969 45.773438 Z M 43.167969 45.773438 "/>
<path style=" stroke:none;fill-rule:evenodd;fill:rgb(39.607843%,39.607843%,39.607843%);fill-opacity:1;" d="M 73.417969 45.574219 C 74.105469 47.183594 74.640625 48.859375 75.019531 50.605469 C 74.328125 48.996094 73.796875 47.316406 73.417969 45.574219 Z M 73.417969 45.574219 "/>
<path style=" stroke:none;fill-rule:evenodd;fill:rgb(60%,60%,60%);fill-opacity:1;" d="M 51.382812 45.976562 C 51.667969 46.382812 51.800781 46.851562 51.78125 47.382812 C 51.496094 46.980469 51.363281 46.507812 51.382812 45.976562 Z M 51.382812 45.976562 "/>
<path style=" stroke:none;fill-rule:evenodd;fill:rgb(59.607843%,59.607843%,59.607843%);fill-opacity:1;" d="M 51.78125 47.382812 C 52.066406 47.789062 52.199219 48.257812 52.183594 48.792969 C 51.898438 48.386719 51.765625 47.917969 51.78125 47.382812 Z M 51.78125 47.382812 "/>
<path style=" stroke:none;fill-rule:evenodd;fill:rgb(39.215686%,39.215686%,39.215686%);fill-opacity:1;" d="M 42.566406 47.988281 C 42.488281 48.589844 42.285156 49.125 41.964844 49.597656 C 41.988281 48.964844 42.1875 48.429688 42.566406 47.988281 Z M 42.566406 47.988281 "/>
<path style=" stroke:none;fill-rule:evenodd;fill:rgb(63.529412%,63.529412%,63.529412%);fill-opacity:1;" d="M 21.132812 48.992188 C 21.101562 49.328125 20.96875 49.59375 20.734375 49.796875 C 20.679688 49.421875 20.8125 49.152344 21.132812 48.992188 Z M 21.132812 48.992188 "/>
<path style=" stroke:none;fill-rule:evenodd;fill:rgb(59.215686%,59.215686%,59.215686%);fill-opacity:1;" d="M 52.183594 48.792969 C 52.46875 49.199219 52.601562 49.667969 52.582031 50.203125 C 52.296875 49.796875 52.164062 49.328125 52.183594 48.792969 Z M 52.183594 48.792969 "/>
<path style=" stroke:none;fill-rule:evenodd;fill:rgb(39.607843%,39.607843%,39.607843%);fill-opacity:1;" d="M 41.964844 50.203125 C 41.886719 50.800781 41.6875 51.339844 41.367188 51.8125 C 41.386719 51.179688 41.585938 50.644531 41.964844 50.203125 Z M 41.964844 50.203125 "/>
<path style=" stroke:none;fill-rule:evenodd;fill:rgb(58.823529%,58.823529%,58.823529%);fill-opacity:1;" d="M 52.582031 50.203125 C 52.867188 50.605469 53.003906 51.074219 52.984375 51.609375 C 52.699219 51.203125 52.566406 50.734375 52.582031 50.203125 Z M 52.582031 50.203125 "/>
<path style=" stroke:none;fill-rule:evenodd;fill:rgb(40.784314%,40.784314%,40.784314%);fill-opacity:1;" d="M 75.019531 50.605469 C 75.707031 52.210938 76.242188 53.890625 76.621094 55.632812 C 75.933594 54.023438 75.398438 52.347656 75.019531 50.605469 Z M 75.019531 50.605469 "/>
<path style=" stroke:none;fill-rule:evenodd;fill:rgb(58.039216%,58.039216%,58.039216%);fill-opacity:1;" d="M 52.984375 51.609375 C 53.269531 52.015625 53.402344 52.484375 53.382812 53.019531 C 53.097656 52.613281 52.964844 52.144531 52.984375 51.609375 Z M 52.984375 51.609375 "/>
<path style=" stroke:none;fill-rule:evenodd;fill:rgb(57.647059%,57.647059%,57.647059%);fill-opacity:1;" d="M 53.382812 53.019531 C 53.671875 53.421875 53.804688 53.894531 53.785156 54.425781 C 53.5 54.019531 53.367188 53.550781 53.382812 53.019531 Z M 53.382812 53.019531 "/>
<path style=" stroke:none;fill-rule:evenodd;fill:rgb(79.215686%,79.215686%,79.215686%);fill-opacity:1;" d="M 53.984375 55.433594 C 54.152344 55.5 54.21875 55.636719 54.1875 55.835938 C 52.867188 56.230469 51.464844 56.363281 49.980469 56.238281 C 51.277344 56.039062 52.613281 55.972656 53.984375 56.035156 C 53.984375 55.835938 53.984375 55.632812 53.984375 55.433594 Z M 53.984375 55.433594 "/>
<path style=" stroke:none;fill-rule:evenodd;fill:rgb(42.352941%,42.352941%,42.352941%);fill-opacity:1;" d="M 76.621094 55.632812 C 77.3125 57.242188 77.84375 58.917969 78.222656 60.664062 C 77.535156 59.054688 77 57.378906 76.621094 55.632812 Z M 76.621094 55.632812 "/>
<path style=" stroke:none;fill-rule:evenodd;fill:rgb(37.647059%,37.647059%,37.647059%);fill-opacity:1;" d="M 54.1875 55.835938 C 54.382812 55.898438 54.515625 56.03125 54.585938 56.238281 C 51.457031 56.582031 48.320312 56.714844 45.171875 56.640625 C 46.773438 56.503906 48.375 56.371094 49.980469 56.238281 C 51.464844 56.363281 52.867188 56.230469 54.1875 55.835938 Z M 54.1875 55.835938 "/>
<path style=" stroke:none;fill-rule:evenodd;fill:rgb(66.27451%,66.27451%,66.27451%);fill-opacity:1;" d="M 18.53125 57.242188 C 18.441406 57.777344 18.242188 58.246094 17.929688 58.652344 C 17.9375 58.078125 18.140625 57.609375 18.53125 57.242188 Z M 18.53125 57.242188 "/>
<path style=" stroke:none;fill-rule:evenodd;fill:rgb(43.529412%,43.529412%,43.529412%);fill-opacity:1;" d="M 78.222656 60.664062 C 78.914062 62.273438 79.449219 63.949219 79.828125 65.695312 C 79.136719 64.085938 78.601562 62.410156 78.222656 60.664062 Z M 78.222656 60.664062 "/>
<path style=" stroke:none;fill-rule:evenodd;fill:rgb(63.137255%,63.137255%,63.137255%);fill-opacity:1;" d="M 17.328125 61.066406 C 17.269531 61.449219 17.132812 61.785156 16.925781 62.074219 C 16.851562 61.628906 16.984375 61.292969 17.328125 61.066406 Z M 17.328125 61.066406 "/>
<path style=" stroke:none;fill-rule:evenodd;fill:rgb(67.45098%,67.45098%,67.45098%);fill-opacity:1;" d="M 43.96875 61.066406 C 43.828125 61.777344 43.628906 62.445312 43.367188 63.078125 C 43.328125 62.304688 43.527344 61.632812 43.96875 61.066406 Z M 43.96875 61.066406 "/>
<path style=" stroke:none;fill-rule:evenodd;fill:rgb(64.705882%,64.705882%,64.705882%);fill-opacity:1;" d="M 43.367188 63.28125 C 43.292969 63.722656 43.160156 64.125 42.96875 64.488281 C 42.878906 63.980469 43.011719 63.578125 43.367188 63.28125 Z M 43.367188 63.28125 "/>
<path style=" stroke:none;fill-rule:evenodd;fill:rgb(68.627451%,68.627451%,68.627451%);fill-opacity:1;" d="M 15.925781 65.492188 C 15.839844 66.027344 15.636719 66.496094 15.324219 66.902344 C 15.335938 66.328125 15.535156 65.859375 15.925781 65.492188 Z M 15.925781 65.492188 "/>
<path style=" stroke:none;fill-rule:evenodd;fill:rgb(43.921569%,43.921569%,43.921569%);fill-opacity:1;" d="M 79.828125 65.695312 C 80.449219 67.101562 80.917969 68.578125 81.230469 70.121094 C 80.605469 68.710938 80.136719 67.238281 79.828125 65.695312 Z M 79.828125 65.695312 "/>
<path style=" stroke:none;fill-rule:evenodd;fill:rgb(69.803922%,69.803922%,69.803922%);fill-opacity:1;" d="M 42.566406 66.097656 C 42.425781 66.804688 42.226562 67.476562 41.964844 68.109375 C 41.925781 67.335938 42.125 66.664062 42.566406 66.097656 Z M 42.566406 66.097656 "/>
<path style=" stroke:none;fill-rule:evenodd;fill:rgb(74.117647%,74.117647%,74.117647%);fill-opacity:1;" d="M 41.964844 68.308594 C 41.820312 69.175781 41.550781 69.980469 41.164062 70.722656 C 41.269531 69.976562 41.4375 69.238281 41.667969 68.511719 C 41.742188 68.398438 41.84375 68.332031 41.964844 68.308594 Z M 41.964844 68.308594 "/>
<path style=" stroke:none;fill-rule:evenodd;fill:rgb(92.54902%,69.019608%,53.333333%);fill-opacity:1;" d="M 117.488281 69.316406 C 117.488281 69.382812 117.488281 69.449219 117.488281 69.515625 C 117.417969 69.515625 117.351562 69.515625 117.285156 69.515625 C 109.742188 69.515625 102.195312 69.515625 94.648438 69.515625 C 94.648438 75.621094 94.648438 81.722656 94.648438 87.828125 C 94.648438 87.894531 94.648438 87.960938 94.648438 88.027344 C 94.582031 88.027344 94.515625 88.027344 94.449219 88.027344 C 94.449219 81.789062 94.449219 75.554688 94.449219 69.316406 C 102.128906 69.316406 109.808594 69.316406 117.488281 69.316406 Z M 117.488281 69.316406 "/>
<path style=" stroke:none;fill-rule:evenodd;fill:rgb(88.235294%,51.764706%,26.27451%);fill-opacity:1;" d="M 117.285156 69.515625 C 117.285156 75.621094 117.285156 81.722656 117.285156 87.828125 C 109.742188 87.828125 102.195312 87.828125 94.648438 87.828125 C 94.648438 81.722656 94.648438 75.621094 94.648438 69.515625 C 102.195312 69.515625 109.742188 69.515625 117.285156 69.515625 Z M 117.285156 69.515625 "/>
<path style=" stroke:none;fill-rule:evenodd;fill:rgb(68.235294%,68.235294%,68.235294%);fill-opacity:1;" d="M 14.722656 69.316406 C 14.636719 69.851562 14.4375 70.320312 14.121094 70.722656 C 14.132812 70.152344 14.332031 69.683594 14.722656 69.316406 Z M 14.722656 69.316406 "/>
<path style=" stroke:none;fill-rule:evenodd;fill:rgb(44.705882%,44.705882%,44.705882%);fill-opacity:1;" d="M 81.230469 70.121094 C 81.917969 71.730469 82.453125 73.40625 82.832031 75.152344 C 82.140625 73.542969 81.609375 71.863281 81.230469 70.121094 Z M 81.230469 70.121094 "/>
<path style=" stroke:none;fill-rule:evenodd;fill:rgb(70.196078%,70.196078%,70.196078%);fill-opacity:1;" d="M 41.164062 71.328125 C 40.96875 71.984375 40.835938 72.65625 40.765625 73.339844 C 40.699219 73.339844 40.632812 73.339844 40.5625 73.339844 C 40.523438 72.566406 40.722656 71.894531 41.164062 71.328125 Z M 41.164062 71.328125 "/>
<path style=" stroke:none;fill-rule:evenodd;fill:rgb(68.235294%,68.235294%,68.235294%);fill-opacity:1;" d="M 13.519531 73.140625 C 13.433594 73.671875 13.234375 74.144531 12.921875 74.546875 C 12.929688 73.976562 13.132812 73.503906 13.519531 73.140625 Z M 13.519531 73.140625 "/>
<path style=" stroke:none;fill-rule:evenodd;fill:rgb(26.666667%,26.666667%,26.666667%);fill-opacity:1;" d="M 40.5625 73.339844 C 40.632812 73.339844 40.699219 73.339844 40.765625 73.339844 C 44.199219 73.675781 47.671875 73.875 51.179688 73.945312 C 47.570312 74.074219 44.03125 73.941406 40.5625 73.542969 C 40.5625 73.472656 40.5625 73.40625 40.5625 73.339844 Z M 40.5625 73.339844 "/>
<path style=" stroke:none;fill-rule:evenodd;fill:rgb(76.862745%,76.862745%,76.862745%);fill-opacity:1;" d="M 40.5625 73.542969 C 44.03125 73.941406 47.570312 74.074219 51.179688 73.945312 C 51.648438 73.945312 52.117188 73.945312 52.582031 73.945312 C 53.851562 74.078125 55.121094 74.210938 56.390625 74.347656 C 51.046875 74.234375 45.707031 74.167969 40.363281 74.144531 C 40.316406 73.886719 40.382812 73.683594 40.5625 73.542969 Z M 40.5625 73.542969 "/>
<path style=" stroke:none;fill-rule:evenodd;fill:rgb(32.156863%,32.156863%,32.156863%);fill-opacity:1;" d="M 52.582031 73.945312 C 55.03125 73.871094 57.433594 74.003906 59.792969 74.347656 C 59.460938 74.347656 59.128906 74.347656 58.792969 74.347656 C 57.992188 74.347656 57.191406 74.347656 56.390625 74.347656 C 55.121094 74.210938 53.851562 74.078125 52.582031 73.945312 Z M 52.582031 73.945312 "/>
<path style=" stroke:none;fill-rule:evenodd;fill:rgb(74.901961%,74.901961%,74.901961%);fill-opacity:1;" d="M 58.792969 74.347656 C 59.128906 74.347656 59.460938 74.347656 59.792969 74.347656 C 59.792969 74.613281 59.792969 74.882812 59.792969 75.152344 C 59.613281 75.007812 59.546875 74.808594 59.59375 74.546875 C 59.273438 74.601562 59.007812 74.535156 58.792969 74.347656 Z M 58.792969 74.347656 "/>
<path style=" stroke:none;fill-rule:evenodd;fill:rgb(45.490196%,45.490196%,45.490196%);fill-opacity:1;" d="M 82.832031 75.152344 C 83.453125 76.558594 83.921875 78.035156 84.234375 79.578125 C 83.609375 78.167969 83.144531 76.695312 82.832031 75.152344 Z M 82.832031 75.152344 "/>
<path style=" stroke:none;fill-rule:evenodd;fill:rgb(65.098039%,65.098039%,65.098039%);fill-opacity:1;" d="M 59.792969 75.152344 C 60.109375 75.472656 60.242188 75.875 60.195312 76.359375 C 59.878906 76.035156 59.746094 75.632812 59.792969 75.152344 Z M 59.792969 75.152344 "/>
<path style=" stroke:none;fill-rule:evenodd;fill:rgb(60%,60%,60%);fill-opacity:1;" d="M 60.195312 76.359375 C 60.480469 76.761719 60.613281 77.234375 60.597656 77.765625 C 60.3125 77.359375 60.175781 76.890625 60.195312 76.359375 Z M 60.195312 76.359375 "/>
<path style=" stroke:none;fill-rule:evenodd;fill:rgb(68.235294%,68.235294%,68.235294%);fill-opacity:1;" d="M 12.320312 76.960938 C 12.234375 77.496094 12.03125 77.964844 11.71875 78.371094 C 11.730469 77.796875 11.929688 77.328125 12.320312 76.960938 Z M 12.320312 76.960938 "/>
<path style=" stroke:none;fill-rule:evenodd;fill:rgb(66.666667%,66.666667%,66.666667%);fill-opacity:1;" d="M 60.796875 78.773438 C 61.113281 79.09375 61.246094 79.496094 61.195312 79.980469 C 60.882812 79.65625 60.75 79.253906 60.796875 78.773438 Z M 60.796875 78.773438 "/>
<path style=" stroke:none;fill-rule:evenodd;fill:rgb(45.098039%,45.098039%,45.098039%);fill-opacity:1;" d="M 84.234375 79.578125 C 84.855469 80.984375 85.324219 82.460938 85.636719 84.003906 C 85.011719 82.597656 84.546875 81.121094 84.234375 79.578125 Z M 84.234375 79.578125 "/>
<path style=" stroke:none;fill-rule:evenodd;fill:rgb(61.176471%,61.176471%,61.176471%);fill-opacity:1;" d="M 61.195312 79.980469 C 61.480469 80.386719 61.617188 80.855469 61.597656 81.386719 C 61.3125 80.984375 61.179688 80.511719 61.195312 79.980469 Z M 61.195312 79.980469 "/>
<path style=" stroke:none;fill-rule:evenodd;fill:rgb(68.235294%,68.235294%,68.235294%);fill-opacity:1;" d="M 11.117188 80.785156 C 11.03125 81.320312 10.832031 81.789062 10.515625 82.191406 C 10.527344 81.621094 10.726562 81.152344 11.117188 80.785156 Z M 11.117188 80.785156 "/>
<path style=" stroke:none;fill-rule:evenodd;fill:rgb(59.215686%,59.215686%,59.215686%);fill-opacity:1;" d="M 61.597656 81.386719 C 61.882812 81.792969 62.015625 82.261719 62 82.796875 C 61.714844 82.390625 61.578125 81.921875 61.597656 81.386719 Z M 61.597656 81.386719 "/>
<path style=" stroke:none;fill-rule:evenodd;fill:rgb(73.72549%,73.72549%,73.72549%);fill-opacity:1;" d="M 33.152344 82.59375 C 33.171875 83.128906 33.039062 83.597656 32.753906 84.003906 C 32.734375 83.46875 32.867188 83 33.152344 82.59375 Z M 33.152344 82.59375 "/>
<path style=" stroke:none;fill-rule:evenodd;fill:rgb(44.313725%,44.313725%,44.313725%);fill-opacity:1;" d="M 85.636719 84.003906 C 86.152344 85.152344 86.550781 86.363281 86.835938 87.625 C 86.835938 87.761719 86.769531 87.828125 86.636719 87.828125 C 86.261719 86.5625 85.929688 85.289062 85.636719 84.003906 Z M 85.636719 84.003906 "/>
<path style=" stroke:none;fill-rule:evenodd;fill:rgb(65.882353%,65.882353%,65.882353%);fill-opacity:1;" d="M 62.199219 83.804688 C 62.515625 84.125 62.648438 84.527344 62.597656 85.011719 C 62.285156 84.6875 62.152344 84.285156 62.199219 83.804688 Z M 62.199219 83.804688 "/>
<path style=" stroke:none;fill-rule:evenodd;fill:rgb(67.843137%,67.843137%,67.843137%);fill-opacity:1;" d="M 9.914062 84.609375 C 9.828125 85.140625 9.628906 85.613281 9.316406 86.015625 C 9.324219 85.445312 9.527344 84.972656 9.914062 84.609375 Z M 9.914062 84.609375 "/>
<path style=" stroke:none;fill-rule:evenodd;fill:rgb(73.72549%,73.72549%,73.72549%);fill-opacity:1;" d="M 32.550781 84.808594 C 32.570312 85.34375 32.4375 85.8125 32.152344 86.21875 C 32.132812 85.683594 32.265625 85.214844 32.550781 84.808594 Z M 32.550781 84.808594 "/>
<path style=" stroke:none;fill-rule:evenodd;fill:rgb(60.784314%,60.784314%,60.784314%);fill-opacity:1;" d="M 62.597656 85.011719 C 62.882812 85.414062 63.019531 85.886719 63 86.417969 C 62.714844 86.011719 62.582031 85.542969 62.597656 85.011719 Z M 62.597656 85.011719 "/>
<path style=" stroke:none;fill-rule:evenodd;fill:rgb(58.431373%,58.431373%,58.431373%);fill-opacity:1;" d="M 63 86.417969 C 63.285156 86.824219 63.417969 87.292969 63.402344 87.828125 C 63.117188 87.421875 62.980469 86.953125 63 86.417969 Z M 63 86.417969 "/>
<path style=" stroke:none;fill-rule:evenodd;fill:rgb(22.745098%,22.745098%,22.745098%);fill-opacity:1;" d="M 9.113281 87.222656 C 9.113281 87.425781 9.113281 87.625 9.113281 87.828125 C 16.59375 87.828125 24.070312 87.828125 31.550781 87.828125 C 24.003906 88.09375 16.460938 88.09375 8.914062 87.828125 C 8.867188 87.566406 8.933594 87.367188 9.113281 87.222656 Z M 9.113281 87.222656 "/>
<path style=" stroke:none;fill-rule:evenodd;fill:rgb(60%,60%,60%);fill-opacity:1;" d="M 86.835938 87.625 C 86.945312 87.636719 87.011719 87.703125 87.039062 87.828125 C 85.640625 88.027344 84.238281 88.09375 82.832031 88.027344 C 84.0625 87.828125 85.332031 87.761719 86.636719 87.828125 C 86.769531 87.828125 86.835938 87.761719 86.835938 87.625 Z M 86.835938 87.625 "/>
<path style=" stroke:none;fill-rule:evenodd;fill:rgb(89.803922%,57.647059%,35.686275%);fill-opacity:1;" d="M 117.285156 69.515625 C 117.351562 69.515625 117.417969 69.515625 117.488281 69.515625 C 117.488281 75.6875 117.488281 81.859375 117.488281 88.027344 C 109.875 88.027344 102.261719 88.027344 94.648438 88.027344 C 94.648438 87.960938 94.648438 87.894531 94.648438 87.828125 C 102.195312 87.828125 109.742188 87.828125 117.285156 87.828125 C 117.285156 81.722656 117.285156 75.621094 117.285156 69.515625 Z M 117.285156 69.515625 "/>
<path style=" stroke:none;fill-rule:evenodd;fill:rgb(66.666667%,66.666667%,66.666667%);fill-opacity:1;" d="M 31.949219 87.023438 C 31.980469 87.375 31.914062 87.710938 31.75 88.027344 C 24.070312 88.296875 16.394531 88.296875 8.714844 88.027344 C 8.738281 87.90625 8.804688 87.839844 8.914062 87.828125 C 16.460938 88.09375 24.003906 88.09375 31.550781 87.828125 C 31.648438 87.527344 31.78125 87.257812 31.949219 87.023438 Z M 31.949219 87.023438 "/>
<path style=" stroke:none;fill-rule:evenodd;fill:rgb(95.294118%,81.568627%,72.156863%);fill-opacity:1;" d="M 117.488281 69.316406 C 117.6875 75.585938 117.753906 81.890625 117.6875 88.230469 C 109.90625 88.296875 102.160156 88.230469 94.449219 88.027344 C 94.515625 88.027344 94.582031 88.027344 94.648438 88.027344 C 102.261719 88.027344 109.875 88.027344 117.488281 88.027344 C 117.488281 81.859375 117.488281 75.6875 117.488281 69.515625 C 117.488281 69.449219 117.488281 69.382812 117.488281 69.316406 Z M 117.488281 69.316406 "/>
</g>
</svg>
