<?xml version="1.0" encoding="UTF-8"?>
<!DOCTYPE svg PUBLIC "-//W3C//DTD SVG 1.1//EN" "http://www.w3.org/Graphics/SVG/1.1/DTD/svg11.dtd">
<svg xmlns="http://www.w3.org/2000/svg" version="1.1" width="1080px" height="1080px" style="shape-rendering:geometricPrecision; text-rendering:geometricPrecision; image-rendering:optimizeQuality; fill-rule:evenodd; clip-rule:evenodd" xmlns:xlink="http://www.w3.org/1999/xlink">
<g><path style="opacity:1" fill="#fefefe" d="M -0.5,-0.5 C 359.5,-0.5 719.5,-0.5 1079.5,-0.5C 1079.5,359.5 1079.5,719.5 1079.5,1079.5C 719.5,1079.5 359.5,1079.5 -0.5,1079.5C -0.5,719.5 -0.5,359.5 -0.5,-0.5 Z"/></g>
<g><path style="opacity:1" fill="#c5c5c5" d="M 515.5,345.5 C 480.484,344.84 445.817,345.507 411.5,347.5C 410.596,346.791 410.263,345.791 410.5,344.5C 445.671,344.168 480.671,344.502 515.5,345.5 Z"/></g>
<g><path style="opacity:1" fill="#1f1f1f" d="M 374.5,345.5 C 378.167,345.5 381.833,345.5 385.5,345.5C 400.265,397.296 414.932,449.129 429.5,501C 407.774,580.062 386.107,659.229 364.5,738.5C 326.5,738.5 288.5,738.5 250.5,738.5C 291.677,607.459 333.011,476.459 374.5,345.5 Z"/></g>
<g><path style="opacity:1" fill="#1f1f1f" d="M 515.5,345.5 C 557.162,476.154 598.829,606.821 640.5,737.5C 601.506,738.5 562.506,738.833 523.5,738.5C 517.478,715.745 511.145,693.079 504.5,670.5C 472.851,668.507 440.851,667.841 408.5,668.5C 416.055,639.269 424.055,610.269 432.5,581.5C 447.848,581.833 463.181,581.499 478.5,580.5C 478.376,579.893 478.043,579.56 477.5,579.5C 455.715,502.14 433.715,424.807 411.5,347.5C 445.817,345.507 480.484,344.84 515.5,345.5 Z"/></g>
<g><path style="opacity:1" fill="#555555" d="M 477.5,579.5 C 478.043,579.56 478.376,579.893 478.5,580.5C 463.181,581.499 447.848,581.833 432.5,581.5C 447.5,580.833 462.5,580.167 477.5,579.5 Z"/></g>
<g><path style="opacity:1" fill="#e28444" d="M 678.5,645.5 C 716.833,645.5 755.167,645.5 793.5,645.5C 793.5,676.5 793.5,707.5 793.5,738.5C 755.167,738.5 716.833,738.5 678.5,738.5C 678.5,707.5 678.5,676.5 678.5,645.5 Z"/></g>
<g><path style="opacity:1" fill="#c6c6c6" d="M 408.5,668.5 C 440.851,667.841 472.851,668.507 504.5,670.5C 472.402,669.84 440.402,669.174 408.5,668.5 Z"/></g>
</svg>
